HIERARCHY
ROOT Hips
{
	OFFSET -3.958830 18.904000 13.208200
	CHANNELS 6 Xposition Yposition Zposition Zrotation Yrotation Xrotation 
	JOINT LHipJoint
	{
		OFFSET 0.000000 0.000000 0.000000
		CHANNELS 3 Zrotation Yrotation Xrotation
		JOINT LeftUpLeg
		{
			OFFSET 1.800000 -1.400000 0.085000
			CHANNELS 3 Zrotation Yrotation Xrotation
			JOINT LeftLeg
			{
				OFFSET 2.215000 -6.000000 0.000000
				CHANNELS 3 Zrotation Yrotation Xrotation
				JOINT LeftFoot
				{
					OFFSET 2.500000 -6.900000 0.000000
					CHANNELS 3 Zrotation Yrotation Xrotation
					JOINT LeftToeBase
					{
						OFFSET 0.200000 -0.500000 1.950000
						CHANNELS 3 Zrotation Yrotation Xrotation
						End Site
						{
							OFFSET 0.000000 0.000000 0.000000
						}
					}
				}
			}
		}
	}
	JOINT RHipJoint
	{
		OFFSET 0.000000 0.000000 0.000000
		CHANNELS 3 Zrotation Yrotation Xrotation
		JOINT RightUpLeg
		{
			OFFSET -1.800000 -1.400000 0.085000
			CHANNELS 3 Zrotation Yrotation Xrotation
			JOINT RightLeg
			{
				OFFSET -2.215000 -6.000000 0.000000
				CHANNELS 3 Zrotation Yrotation Xrotation
				JOINT RightFoot
				{
					OFFSET -2.500000 -6.900000 0.000000
					CHANNELS 3 Zrotation Yrotation Xrotation
					JOINT RightToeBase
					{
						OFFSET -0.200000 -0.500000 1.950000
						CHANNELS 3 Zrotation Yrotation Xrotation
						End Site
						{
							OFFSET 0.000000 0.000000 0.000000
						}
					}
				}
			}
		}
	}
	JOINT LowerBack
	{
		OFFSET 0.000000 0.000000 0.000000
		CHANNELS 3 Zrotation Yrotation Xrotation
		JOINT Spine
		{
			OFFSET -0.087000 1.940000 -0.288900
			CHANNELS 3 Zrotation Yrotation Xrotation
			JOINT Spine1
			{
				OFFSET 0.000000 1.950000 0.060000
				CHANNELS 3 Zrotation Yrotation Xrotation
				JOINT Neck
				{
					OFFSET 0.000000 0.000000 0.000000
					CHANNELS 3 Zrotation Yrotation Xrotation
					JOINT Neck1
					{
						OFFSET 0.000000 1.600000 0.340000
						CHANNELS 3 Zrotation Yrotation Xrotation
						JOINT Head
						{
							OFFSET 0.000000 1.667000 -0.240000
							CHANNELS 3 Zrotation Yrotation Xrotation
							End Site
							{
								OFFSET 0.000000 0.000000 0.000000
							}
						}
					}
				}
				JOINT LeftShoulder
				{
					OFFSET 0.000000 0.000000 0.000000
					CHANNELS 3 Zrotation Yrotation Xrotation
					JOINT LeftArm
					{
						OFFSET 2.700000 1.550000 -0.730000
						CHANNELS 3 Zrotation Yrotation Xrotation
						JOINT LeftForeArm
						{
							OFFSET 5.450000 0.000000 0.000000
							CHANNELS 3 Zrotation Yrotation Xrotation
							JOINT LeftHand
							{
								OFFSET 3.450000 0.000000 0.000000
								CHANNELS 3 Zrotation Yrotation Xrotation
								JOINT LeftHandIndex1
								{
									OFFSET 0.750000 0.000000 0.000000
									CHANNELS 3 Zrotation Yrotation Xrotation
									End Site
									{
										OFFSET 0.000000 0.000000 0.000000
									}
								}
							}
						}
					}
				}
				JOINT RightShoulder
				{
					OFFSET 0.000000 0.000000 0.000000
					CHANNELS 3 Zrotation Yrotation Xrotation
					JOINT RightArm
					{
						OFFSET -2.700000 1.550000 -0.730000
						CHANNELS 3 Zrotation Yrotation Xrotation
						JOINT RightForeArm
						{
							OFFSET -5.450000 0.000000 0.000000
							CHANNELS 3 Zrotation Yrotation Xrotation
							JOINT RightHand
							{
								OFFSET -3.450000 0.000000 0.000000
								CHANNELS 3 Zrotation Yrotation Xrotation
								JOINT RightHandIndex1
								{
									OFFSET -0.750000 0.000000 0.000000
									CHANNELS 3 Zrotation Yrotation Xrotation
									End Site
									{
										OFFSET 0.000000 0.000000 0.000000
									}
								}
							}
						}
					}
				}
			}
		}
	}
}
MOTION
Frames: 10
Frame Time: 0.016667
-0.026610 17.086070 -2.677070 -2.942874 19.288108 -8.230714 -15.070146 13.344211 3.357868 4.407816 -0.740489 -5.521245 -13.451896 6.503580 8.311402 -0.214157 4.431557 3.043945 0.486860 0.383210 0.334400 18.194119 -10.984147 2.965220 -5.116786 4.611414 -13.706378 12.931933 -11.214390 36.712404 -0.935164 -6.217664 2.137097 0.212180 -0.080030 0.027880 -4.177524 -1.260172 -8.115314 13.953287 -10.307114 32.867039 -23.169066 -2.339025 9.691551 13.771352 -4.470496 -11.664260 -9.875495 3.627899 46.433000 3.002570 -4.075250 -20.400250 -29.802078 -11.714457 3.099246 -37.303362 -4.476579 -10.933733 -2.064213 -33.429182 -2.185368 -3.150263 3.072266 0.605920 -0.215190 0.180500 0.018390 1.648115 17.530866 8.422836 -11.600219 7.872275 -6.410164 -21.421107 20.582628 -2.818465 2.200106 -1.280663 -0.078520 0.304680 -0.011360 -0.179510 
-0.027440 17.086330 -2.677470 -2.931220 19.310645 -8.283842 -15.068138 13.341727 3.356460 4.412499 -0.740383 -5.475403 -13.448718 6.507926 8.331561 -0.213553 4.436614 3.043158 0.489260 0.382230 0.337550 18.195924 -10.988462 2.965245 -5.129161 4.619593 -13.670324 12.927597 -11.217849 36.741211 -0.937932 -6.223317 2.134833 0.211440 -0.080530 0.029540 -4.184165 -1.248461 -8.114517 13.936804 -10.317982 32.932405 -23.197254 -2.321512 9.736710 13.739424 -4.465865 -11.733408 -9.903475 3.623823 46.525362 3.096220 -4.120530 -20.382200 -29.817855 -11.796535 3.137590 -37.281414 -4.397582 -11.008602 -2.027750 -33.494375 -2.214440 -3.145301 3.074881 0.609280 -0.216600 0.181840 0.019220 1.724439 17.620953 8.506404 -11.819047 7.865364 -6.343133 -21.221529 19.806971 -2.705425 2.213151 -1.274606 -0.078610 0.303660 -0.013120 -0.180360 
-0.028820 17.086330 -2.677910 -2.913942 19.358003 -8.390844 -15.064633 13.337796 3.353828 4.426550 -0.731587 -5.378875 -13.447222 6.517297 8.353729 -0.212909 4.444495 3.040550 0.488010 0.379190 0.334780 18.199232 -10.995203 2.965333 -5.148655 4.632614 -13.590231 12.932254 -11.230508 36.790783 -0.942208 -6.234096 2.131753 0.209220 -0.079910 0.028580 -4.196075 -1.230910 -8.113534 13.916832 -10.335937 33.067642 -23.232177 -2.284900 9.802461 13.663156 -4.463814 -11.881269 -9.989276 3.631875 46.718791 3.330880 -4.210610 -20.372960 -29.808506 -11.958686 3.203602 -37.291585 -4.252387 -11.133999 -1.979541 -33.589276 -2.262253 -3.138131 3.076639 0.614350 -0.219580 0.182480 0.019590 1.860874 17.799150 8.685902 -12.232865 7.784766 -6.215878 -20.846197 18.297857 -2.492192 2.237759 -1.257882 -0.080160 0.305100 -0.011060 -0.180580 
-0.030200 17.086350 -2.677840 -2.902981 19.397842 -8.518816 -15.056879 13.327627 3.348734 4.444803 -0.715540 -5.240776 -13.430380 6.521126 8.357694 -0.211039 4.449613 3.037657 0.486110 0.376590 0.329040 18.207080 -11.007744 2.966838 -5.156246 4.657649 -13.498512 12.924147 -11.237309 36.858142 -0.947330 -6.246838 2.127808 0.206990 -0.080120 0.028270 -4.220723 -1.192641 -8.111808 13.954225 -10.370963 33.193239 -23.330016 -2.229348 9.902779 13.555726 -4.467154 -12.100385 -10.124206 3.665456 47.021304 3.679730 -4.334310 -20.340230 -29.768347 -12.191172 3.310313 -37.314617 -4.035542 -11.311721 -1.923636 -33.744575 -2.324510 -3.126938 3.080919 0.620300 -0.223700 0.184880 0.020720 2.024471 18.058422 8.933429 -12.686639 7.702821 -6.074723 -20.406092 16.318209 -2.245120 2.272928 -1.235849 -0.080940 0.304920 -0.009270 -0.179350 
-0.030660 17.086630 -2.677300 -2.884658 19.428852 -8.643958 -15.047334 13.314944 3.342217 4.439359 -0.697164 -5.083523 -13.391121 6.521913 8.365528 -0.209176 4.451387 3.036244 0.485080 0.374400 0.323460 18.216877 -11.023084 2.969131 -5.174695 4.692121 -13.420860 12.910772 -11.246763 36.956769 -0.953185 -6.263231 2.123504 0.204400 -0.080390 0.027010 -4.250860 -1.144521 -8.109611 14.012627 -10.407422 33.292259 -23.453458 -2.169598 10.006888 13.441952 -4.496260 -12.333565 -10.312902 3.741281 47.390374 4.069830 -4.466850 -20.285530 -29.722350 -12.411934 3.424865 -37.371501 -3.762046 -11.540979 -1.889153 -34.027008 -2.394978 -3.113053 3.087068 0.626530 -0.228490 0.186600 0.022120 2.196619 18.329887 9.186644 -13.079734 7.697630 -5.951458 -19.967829 14.179805 -2.012687 2.312661 -1.210838 -0.081380 0.305010 -0.007650 -0.178290 
-0.031450 17.086320 -2.676200 -2.824861 19.457126 -8.721553 -15.038106 13.299680 3.336896 4.391304 -0.681582 -4.948337 -13.364442 6.523253 8.371138 -0.204366 4.448136 3.036100 0.481610 0.371440 0.317050 18.226451 -11.038425 2.971830 -5.237682 4.733735 -13.395409 12.913994 -11.265522 37.078379 -0.958155 -6.282128 2.116611 0.200080 -0.081070 0.024380 -4.280083 -1.093353 -8.109233 14.035125 -10.404029 33.366627 -23.557253 -2.095098 10.064435 13.314979 -4.543108 -12.546329 -10.535439 3.800832 47.746831 4.446350 -4.618880 -20.219370 -29.640582 -12.569277 3.517911 -37.484181 -3.483573 -11.780964 -1.862282 -34.405373 -2.463726 -3.099776 3.093110 0.629980 -0.234140 0.188000 0.021820 2.362586 18.556073 9.421069 -13.342608 7.680393 -5.859579 -19.618354 12.236321 -1.826144 2.354378 -1.186504 -0.080530 0.304670 -0.005390 -0.175700 
-0.032390 17.084470 -2.674450 -2.734438 19.487743 -8.752919 -15.029746 13.282406 3.331337 4.297659 -0.671137 -4.838932 -13.314741 6.514451 8.371605 -0.200426 4.439558 3.038981 0.479990 0.368580 0.312330 18.235505 -11.053388 2.975266 -5.336787 4.783196 -13.425106 12.933799 -11.295910 37.224755 -0.963013 -6.306736 2.108509 0.196370 -0.081130 0.023210 -4.307185 -1.040021 -8.109615 14.021324 -10.364177 33.383424 -23.641945 -2.012100 10.109273 13.187316 -4.593463 -12.716944 -10.738420 3.843312 48.038735 4.798030 -4.775260 -20.118340 -29.500336 -12.658874 3.586183 -37.632165 -3.214870 -12.014373 -1.907952 -34.883719 -2.516400 -3.087960 3.099783 0.632690 -0.238360 0.188830 0.023160 2.479259 18.712505 9.614085 -13.518055 7.699363 -5.760966 -19.232457 10.553484 -1.660766 2.391634 -1.165549 -0.079480 0.303210 -0.005160 -0.173360 
-0.033630 17.082970 -2.672720 -2.649173 19.525886 -8.791417 -15.023647 13.268322 3.326008 4.221795 -0.657821 -4.731473 -13.271316 6.510363 8.380196 -0.196604 4.433386 3.040693 0.478460 0.366850 0.307350 18.242358 -11.064879 2.978758 -5.426306 4.830997 -13.443853 12.964603 -11.331105 37.368112 -0.968203 -6.332360 2.100384 0.193510 -0.081330 0.021640 -4.327818 -0.996877 -8.110313 13.986841 -10.313197 33.411920 -23.689389 -1.932319 10.157646 13.079041 -4.652722 -12.858132 -10.943867 3.884914 48.299165 5.097230 -4.922790 -20.049280 -29.347709 -12.714169 3.632368 -37.792941 -2.990661 -12.233766 -2.005630 -35.393560 -2.554732 -3.077360 3.105403 0.634770 -0.242240 0.189540 0.024380 2.552699 18.840502 9.775658 -13.627012 7.724152 -5.686191 -18.897257 9.143328 -1.528492 2.423721 -1.146804 -0.078430 0.302420 -0.004640 -0.171010 
-0.035010 17.081650 -2.670650 -2.549289 19.587750 -8.813732 -15.018676 13.255143 3.321330 4.130389 -0.647084 -4.637813 -13.228400 6.507482 8.401553 -0.192009 4.425511 3.042871 0.478400 0.366690 0.304250 18.247959 -11.076153 2.981366 -5.530606 4.868658 -13.467157 13.002592 -11.366633 37.490444 -0.973047 -6.355667 2.093224 0.191120 -0.082730 0.020370 -4.345901 -0.956752 -8.111434 13.924644 -10.255744 33.405476 -23.726483 -1.860891 10.219974 12.980520 -4.694352 -12.989783 -11.103863 3.914321 48.557832 5.352700 -5.051040 -19.977750 -29.170904 -12.763060 3.684727 -37.977739 -2.769382 -12.457954 -2.122828 -35.942268 -2.589414 -3.066249 3.111729 0.636240 -0.246120 0.190960 0.025970 2.586832 18.950492 9.916438 -13.641027 7.774627 -5.620360 -18.601081 7.957014 -1.421256 2.452322 -1.131233 -0.076420 0.300700 -0.005850 -0.168780 
-0.036540 17.080790 -2.668500 -2.453775 19.668694 -8.824264 -15.013968 13.242588 3.316551 4.037176 -0.637762 -4.565496 -13.181823 6.504719 8.430852 -0.187907 4.416152 3.046254 0.476480 0.365850 0.299950 18.253171 -11.087825 2.983658 -5.626840 4.898501 -13.495463 13.032869 -11.395078 37.590222 -0.976624 -6.374171 2.087856 0.188430 -0.082980 0.017980 -4.363798 -0.917172 -8.112597 13.866325 -10.200489 33.373869 -23.761372 -1.795860 10.282616 12.885283 -4.707058 -13.110992 -11.195088 3.933488 48.813790 5.580470 -5.150290 -19.888250 -28.993553 -12.824604 3.751017 -38.142899 -2.541931 -12.676777 -2.307457 -36.503789 -2.604718 -3.056181 3.116744 0.636890 -0.249020 0.191580 0.026880 2.613112 19.047313 10.034799 -13.612378 7.838842 -5.563072 -18.330742 6.945369 -1.330434 2.477321 -1.116100 -0.075220 0.300470 -0.006030 -0.166560 
